<?xml version="1.0" encoding="UTF-8" standalone="no"?>
<!-- Created with Inkscape (http://www.inkscape.org/) -->

<svg
   version="1.1"
   id="svg1"
   width="999.30164"
   height="991.65167"
   viewBox="0 0 999.30164 991.65167"
   sodipodi:docname="logo (2).svg"
   inkscape:version="1.4.4 (dcaf3e7, 2026-05-05)"
   xmlns:inkscape="http://www.inkscape.org/namespaces/inkscape"
   xmlns:sodipodi="http://sodipodi.sourceforge.net/DTD/sodipodi-0.dtd"
   xmlns="http://www.w3.org/2000/svg"
   xmlns:svg="http://www.w3.org/2000/svg">
  <defs
     id="defs1" />
  <sodipodi:namedview
     id="namedview1"
     pagecolor="#ffffff"
     bordercolor="#000000"
     borderopacity="0.25"
     inkscape:showpageshadow="2"
     inkscape:pageopacity="0.0"
     inkscape:pagecheckerboard="0"
     inkscape:deskcolor="#d1d1d1"
     showgrid="false"
     inkscape:zoom="0.58878044"
     inkscape:cx="1568.4964"
     inkscape:cy="433.09862"
     inkscape:window-width="1920"
     inkscape:window-height="1028"
     inkscape:window-x="-6"
     inkscape:window-y="-6"
     inkscape:window-maximized="1"
     inkscape:current-layer="svg1" />
  <path
     style="fill:#000000"
     d="m 461.3317,990.32246 c -5.5,-0.63045 -19.12455,-2.67545 -30.27679,-4.54446 -11.15224,-1.869 -28.64113,-5.45199 -38.86421,-7.96221 -10.22307,-2.51021 -25.39852,-6.74968 -33.7232,-9.42104 -8.32469,-2.67137 -23.5358,-8.1673 -33.80246,-12.2132 -10.26667,-4.04589 -28.03505,-12.04624 -39.4853,-17.77854 -11.45024,-5.73231 -26.15024,-13.55775 -32.66666,-17.38987 -6.51643,-3.83212 -19.04804,-11.75016 -27.84804,-17.59563 -8.8,-5.84548 -21.1,-14.5899 -27.33334,-19.43204 -6.23333,-4.84215 -18.23333,-14.87824 -26.66666,-22.30243 -8.43334,-7.42419 -22.24831,-20.63174 -30.69995,-29.3501 -8.45164,-8.71837 -19.90831,-21.25157 -25.45926,-27.85157 -5.55096,-6.6 -13.78938,-16.92399 -18.30761,-22.94219 C 91.67998,775.52098 82.73475,762.5996 76.31991,752.82501 69.90507,743.05041 60.2877,726.89271 54.9481,716.919 49.6084,706.94529 42.0411,691.36667 38.1318,682.29984 34.2225,673.23301 28.3147,658.0147 25.0033,648.48137 c -3.3113,-9.53334 -7.5668,-23.03334 -9.4566,-30 -1.8898,-6.96667 -5.2331,-21.66667 -7.4297,-32.66667 -2.1965,-11 -4.9211,-28.1 -6.0545,-38 C 0.6497,535.47574 0.0011,517.23204 0,489.80653 c 0,-26.61701 0.6506,-45.58395 1.9471,-56.66667 1.0717,-9.16217 3.2013,-23.25849 4.7322,-31.32516 1.531,-8.06667 4.8228,-22.46667 7.3151,-32 2.4924,-9.53333 6.7202,-23.93333 9.3952,-32 2.675,-8.06667 7.5698,-21.56667 10.8772,-30 3.3075,-8.43333 10.9438,-25.23333 16.9697,-37.33333 6.0258,-12.1 13.868,-26.8 17.42701,-32.66667 3.559,-5.86667 9.72575,-15.67777 13.70388,-21.80245 3.97814,-6.12468 12.49903,-18.12468 18.93533,-26.66667 6.43629,-8.54198 16.38168,-20.87682 22.10086,-27.41075 5.71919,-6.53393 16.44268,-17.84854 23.82999,-25.14359 7.38731,-7.29503 18.53147,-17.58408 24.7648,-22.86455 6.23333,-5.28047 16.13333,-13.21183 22,-17.62526 5.86667,-4.413421 15.23639,-11.092541 20.82161,-14.842487 5.58522,-3.749947 15.78522,-10.237256 22.66667,-14.416243 6.88145,-4.178987 20.18584,-11.436376 29.56531,-16.127531 9.37948,-4.691156 23.47948,-11.153964 31.33334,-14.361796 7.85385,-3.207832 20.52753,-8.000154 28.16372,-10.649603 7.63618,-2.64945 22.93618,-7.171536 34,-10.04908 11.06381,-2.877543 27.01602,-6.4495437 35.44935,-7.9377787 8.43333,-1.488234 22.23333,-3.655184 30.66667,-4.815445 8.43333,-1.160261 29.76351,-2.45540902 47.40039,-2.87810802 20.11794,-0.482161 39.49465,-0.173614 52,0.82802802 10.96312,0.878114 30.35253,3.34745 43.08758,5.487413 12.73506,2.139963 32.23506,6.2696037 43.33334,9.1769797 11.09828,2.907376 27.37869,7.655267 36.17869,10.55087 8.8,2.895602 23.5,8.437398 32.66666,12.315102 9.16667,3.877704 25.36667,11.48667 36,16.908814 10.63334,5.422145 26.31229,14.091624 34.84212,19.26551 8.52984,5.173886 22.74726,14.578667 31.59429,20.899515 8.84702,6.32085 22.89471,17.2928 31.21708,24.38211 8.32237,7.08931 23.33439,21.1893 33.36003,31.33332 10.02564,10.14402 23.499,24.80819 29.94079,32.58703 6.4418,7.77884 16.61556,20.97884 22.60835,29.33333 5.99279,8.35449 14.74868,21.48999 19.45751,29.18999 4.70884,7.7 12.57189,21.3545 17.47343,30.34334 4.90155,8.98884 12.85058,25.18884 17.66453,36 4.81394,10.81116 12.55319,31.05666 17.19832,44.98999 4.64513,13.93333 10.29857,32.92586 12.56321,42.20562 2.26464,9.27976 5.57165,25.47976 7.34892,36 1.77727,10.52024 4.00702,25.72771 4.955,33.79438 1.01885,8.66975 1.73282,30.20413 1.74616,52.66667 0.0138,23.21745 -0.65931,43.70554 -1.73027,52.66666 -0.96406,8.06667 -2.93614,21.56667 -4.38241,30 -1.44627,8.43334 -4.68681,23.73334 -7.2012,34 -2.5144,10.26667 -7.19985,26.46667 -10.41212,36 -3.21227,9.53334 -8.59226,24.0166 -11.95553,32.18503 -3.36328,8.16844 -9.23183,21.06844 -13.04124,28.66667 -3.8094,7.59823 -11.27828,21.042 -16.5975,29.87503 -5.31922,8.83303 -13.39384,21.38079 -17.9436,27.88391 -4.54976,6.50312 -11.6526,16.0761 -15.78409,21.27328 -4.13149,5.19718 -14.42904,16.62031 -22.88345,25.38472 -8.45441,8.76442 -21.97166,22.1687 -30.03833,29.78728 -8.06666,7.61858 -22.96206,20.08943 -33.10087,27.71301 -10.13881,7.62357 -23.93881,17.2718 -30.66667,21.44051 -6.72785,4.16872 -19.13246,11.3584 -27.56579,15.97707 -8.43333,4.61867 -24.33333,12.40055 -35.33333,17.29305 -11,4.89251 -32.3,12.96458 -47.33334,17.93793 -15.03333,4.97336 -36.93333,11.13532 -48.66666,13.69325 -11.73334,2.55793 -27.33334,5.60528 -34.66667,6.77191 -7.33333,1.16662 -19.93333,2.71977 -28,3.45146 -8.06667,0.73168 -31.76667,1.25299 -52.66667,1.15847 -20.9,-0.0945 -42.5,-0.68769 -48,-1.31815 z m 114,-30.44269 c 11.73334,-1.5089 24.63334,-3.38691 28.66667,-4.17335 4.03333,-0.78644 14.96513,-3.19662 24.29288,-5.35595 9.32775,-2.15934 24.42123,-6.25397 33.54107,-9.09918 9.11985,-2.84522 23.68805,-8.00271 32.37379,-11.46109 8.68574,-3.45839 23.98122,-10.42833 33.98996,-15.48876 10.00873,-5.06044 26.06132,-13.92204 35.67241,-19.69246 9.61109,-5.77042 22.72212,-14.27901 29.13563,-18.90799 6.41351,-4.62897 17.66093,-13.24615 24.99426,-19.1493 7.33333,-5.90314 19.81866,-16.99644 27.74516,-24.65177 7.92651,-7.65534 19.37,-19.65624 25.42999,-26.66868 6.05999,-7.01243 14.65556,-17.57367 19.10127,-23.46942 4.44571,-5.89575 11.99716,-16.69575 16.78101,-24 4.78384,-7.30425 12.65079,-20.49503 17.48211,-29.31284 4.83131,-8.81781 12.09097,-23.67466 16.13256,-33.01522 4.0416,-9.34056 9.99953,-24.92599 13.23985,-34.63428 3.24031,-9.7083 7.77266,-25.1127 10.07187,-34.23202 2.29922,-9.11931 5.61744,-25.06348 7.37383,-35.43148 1.75639,-10.368 3.88102,-30.80674 4.7214,-45.41943 0.86028,-14.95864 1.14662,-36.18204 0.65529,-48.56852 -0.47997,-12.1 -2.03342,-29.68446 -3.45211,-39.07659 -1.41869,-9.39213 -4.08785,-24.52642 -5.93148,-33.63176 -1.84362,-9.10533 -5.47094,-24.3757 -8.06071,-33.93414 -2.58977,-9.55844 -7.29936,-25.02415 -10.46576,-34.36824 -3.1664,-9.3441 -8.89393,-24.48927 -12.72784,-33.65593 -3.83392,-9.16667 -11.09952,-24.59573 -16.14578,-34.2868 -5.04627,-9.69106 -13.94521,-25.29106 -19.77542,-34.66666 -5.83021,-9.3756 -15.55057,-23.64654 -21.6008,-31.71321 -6.05022,-8.06667 -15.55456,-20.04811 -21.12076,-26.62543 -5.56619,-6.57732 -18.52035,-20.19708 -28.78701,-30.26613 -10.26667,-10.06906 -25.09459,-23.64156 -32.95095,-30.16111 -7.85635,-6.51956 -21.01769,-16.58166 -29.24743,-22.36022 -8.22974,-5.77856 -21.30181,-14.330137 -29.04906,-19.003501 -7.74724,-4.673365 -21.8859,-12.42482 -31.41923,-17.225456 -9.53333,-4.800637 -22.13333,-10.800707 -28,-13.33349 -5.86667,-2.532783 -17.86667,-7.26806 -26.66667,-10.522839 -8.8,-3.254778 -24.4,-8.273326 -34.66666,-11.152328 -10.26667,-2.879002 -26.46667,-6.718856 -36,-8.533008 -9.53334,-1.814153 -25.73334,-4.365131 -36,-5.668841 -13.92817,-1.768665 -28.14367,-2.372041 -56,-2.376916 -27.76753,-0.0049 -42.28706,0.603545 -56.66667,2.374473 -10.63333,1.309553 -28.33333,4.160546 -39.33333,6.33554 -11,2.174994 -25.44152,5.436104 -32.09225,7.24691 -6.65074,1.810806 -18.95074,5.603926 -27.33334,8.429156 -8.38259,2.82523 -20.51074,7.325954 -26.95143,10.001608 -6.44069,2.675654 -18.99304,8.51553 -27.89411,12.977502 -8.90108,4.461971 -20.73142,10.850953 -26.28966,14.197738 -5.55823,3.346784 -16.01288,9.956538 -23.23254,14.688342 -7.21966,4.73181 -20.63953,14.59657 -29.82194,21.92169 -9.1824,7.32513 -23.91141,20.30943 -32.73112,28.85402 -8.8197,8.54459 -21.76021,22.13562 -28.75668,30.20229 -6.99647,8.06667 -17.06489,20.49823 -22.37427,27.6257 -5.30938,7.12747 -14.41748,20.62772 -20.24022,30.00057 -5.82274,9.37284 -14.24156,23.94128 -18.70849,32.3743 -4.46694,8.43302 -11.66724,23.73276 -16.00069,33.99943 -4.3334,10.26667 -10.9757,28.11688 -14.7605,39.66715 -3.7849,11.55026 -8.6349,28.35026 -10.7778,37.33333 -2.1429,8.98307 -5.109,23.08544 -6.5913,31.3386 -1.4823,8.25316 -3.3849,24.45316 -4.228,36 -0.8998,12.32405 -1.2412,34.48493 -0.8267,53.66092 0.5126,23.71937 1.4904,37.77941 3.5698,51.33333 1.5751,10.26667 4.3776,25.84326 6.2279,34.61464 1.8503,8.77138 5.4564,22.87138 8.0135,31.33333 2.5572,8.46195 7.7106,23.18537 11.4521,32.7187 3.7415,9.53333 11.08487,25.73333 16.31855,36 5.23367,10.26667 13.08129,24.50081 17.43914,31.63142 4.35786,7.13061 11.8144,18.4775 16.57011,25.21531 4.7557,6.7378 13.61296,18.60366 19.68281,26.36858 6.06984,7.76491 18.37882,21.91802 27.35327,31.45136 8.97445,9.53333 21.71719,22.25272 28.31719,28.2653 6.6,6.01259 18.31311,15.91259 26.02913,22 7.71602,6.08742 19.41602,14.74598 26,19.24124 6.58398,4.49527 19.14372,12.50305 27.91054,17.79506 8.76682,5.29201 24.93515,14.12708 35.92961,19.63348 10.99446,5.50641 28.72161,13.48766 39.39366,17.73611 10.67205,4.24845 27.20373,10.15632 36.73706,13.1286 9.53333,2.97228 22.13333,6.58566 28,8.02974 5.86667,1.44409 19.66667,4.15382 30.66667,6.02163 11,1.86782 27.8,4.02895 37.33333,4.80253 9.53333,0.77358 22.43333,1.61456 28.66667,1.86885 6.23333,0.25428 22.13333,0.27266 35.33333,0.0408 13.80096,-0.24239 33.06582,-1.58737 45.33333,-3.16497 z M 468.74945,936.98753 c -8.02024,-0.6149 -23.62024,-2.66378 -34.66667,-4.55308 -11.04642,-1.8893 -27.28441,-5.23479 -36.08441,-7.43443 -8.8,-2.19964 -20.2,-5.23044 -25.33333,-6.7351 -5.13334,-1.50467 -17.33601,-5.71053 -27.11707,-9.34637 -9.78105,-3.63583 -25.08105,-9.9473 -34,-14.02548 -8.91894,-4.07818 -23.55154,-11.51826 -32.51686,-16.53351 -8.96533,-5.01525 -22.35378,-13.04673 -29.75211,-17.84773 -7.39834,-4.80101 -19.56307,-13.33143 -27.03274,-18.95651 -7.46967,-5.62507 -19.88122,-15.74275 -27.58122,-22.48372 -7.7,-6.74097 -21.01471,-19.48594 -29.58823,-28.32217 -8.57353,-8.83623 -20.77885,-22.56136 -27.12294,-30.5003 -6.34409,-7.93894 -17.10329,-22.83443 -23.90933,-33.1011 -6.80603,-10.26666 -16.39696,-26.07618 -21.31316,-35.13225 -4.9162,-9.05607 -12.20595,-23.95719 -16.19945,-33.1136 -3.99349,-9.1564 -9.67085,-23.85721 -12.61634,-32.66845 -2.94549,-8.81124 -7.13939,-23.31012 -9.31989,-32.21973 -2.1804,-8.90962 -5.1302,-23.0993 -6.5552,-31.53263 -1.425,-8.43334 -3.3371,-21.93334 -4.2492,-30 -0.9157,-8.0978 -1.6238,-29.59591 -1.5811,-48 0.061,-26.34109 0.6793,-37.77216 2.9468,-54.49404 1.5783,-11.63839 4.6671,-29.36735 6.8641,-39.39768 2.197,-10.03034 6.37,-25.85102 9.2733,-35.15707 2.90328,-9.30604 7.94245,-23.67709 11.19812,-31.93565 3.25568,-8.25856 8.09972,-19.75006 10.76454,-25.53667 2.66482,-5.78661 8.5183,-17.18661 13.00773,-25.33334 4.48944,-8.14672 12.04435,-20.81222 16.78869,-28.14555 4.74435,-7.33334 13.73371,-20.20363 19.97636,-28.60065 6.88296,-9.25831 21.34337,-25.411 36.74015,-41.0398 14.16893,-14.38244 31.90974,-30.846 40.14247,-37.25242 8.11392,-6.31396 21.65258,-16.08953 30.08591,-21.72348 8.43333,-5.63395 20.73333,-13.26963 27.33333,-16.968165 6.6,-3.698536 16.8,-9.132495 22.66667,-12.075465 5.86667,-2.942969 15.99882,-7.554513 22.51589,-10.247874 6.51707,-2.693361 19.71707,-7.593486 29.33333,-10.889166 9.61626,-3.29568 24.38411,-7.724643 32.81745,-9.842139 8.43333,-2.117496 21.63333,-5.04704 29.33333,-6.510098 7.7,-1.463058 22.7,-3.714074 33.33333,-5.002257 13.37792,-1.620679 28.98521,-2.340986 50.66667,-2.338367 17.23333,0.0021 38.53333,0.720533 47.33333,1.596558 8.8,0.876025 23.5,2.824735 32.66667,4.330467 9.16667,1.505731 25.96667,5.065012 37.33333,7.909512 11.36667,2.8445 27.56667,7.55575 36,10.469444 8.43334,2.913693 22.92466,8.571545 32.20294,12.573002 9.27829,4.001457 23.67829,11.019313 32,15.595235 8.32172,4.575922 22.37172,12.943643 31.22224,18.594923 8.85051,5.65129 24.15051,16.31293 34,23.69254 9.84948,7.37962 24.51332,19.37988 32.5863,26.66724 8.07297,7.28736 20.25186,19.27541 27.06419,26.6401 6.81233,7.36469 16.85216,18.98399 22.31074,25.82066 5.45858,6.83668 13.9337,18.16854 18.8336,25.18193 4.8999,7.01338 13.04066,19.6516 18.09056,28.08493 5.04991,8.43334 13.03269,23.17502 17.73952,32.75931 4.70683,9.58428 11.78445,25.48428 15.72806,35.33333 3.94361,9.84905 9.00535,23.90736 11.24832,31.2407 2.24296,7.33333 5.31221,17.83333 6.82054,23.33333 1.50834,5.5 4.54537,19.10764 6.74895,30.23919 2.20358,11.13156 4.8813,29.13156 5.95048,40 1.06918,10.86845 2.30985,27.56081 2.75704,37.09414 0.4472,9.53334 0.16919,26.93334 -0.61779,38.66667 -0.78698,11.73333 -2.60849,29.04005 -4.0478,38.45938 -1.4393,9.41932 -4.17844,24.08838 -6.08698,32.59791 -1.90853,8.50954 -6.11684,23.69169 -9.3518,33.73812 -3.23496,10.04643 -8.31031,24.10147 -11.27855,31.23343 -2.96824,7.13196 -8.6728,19.49936 -12.67681,27.48312 -4.004,7.98376 -11.15561,21.04502 -15.89246,29.02503 -4.73685,7.98002 -13.22695,20.72374 -18.86688,28.3194 -5.63994,7.59565 -14.5795,18.91028 -19.8657,25.14361 -5.28621,6.23333 -17.35942,18.87636 -26.82936,28.09562 -9.46994,9.21926 -23.19929,21.51926 -30.50967,27.33333 -7.31038,5.81408 -19.58892,14.81862 -27.28564,20.01009 -7.69672,5.19147 -19.2369,12.57743 -25.64485,16.41325 -6.40794,3.83581 -20.20794,11.0668 -30.66666,16.06887 -10.45872,5.00206 -26.00671,11.85374 -34.55107,15.22595 -8.54437,3.37222 -23.8081,8.55044 -33.9194,11.50715 -10.1113,2.95672 -28.68383,7.47622 -41.27228,10.04335 -12.58846,2.56713 -33.32393,5.86036 -46.07882,7.31828 -16.70142,1.90903 -30.83973,2.59819 -50.52584,2.46285 -15.03432,-0.10336 -33.89713,-0.69102 -41.91737,-1.30591 z m 79.91559,-19.84837 c 10.26666,-0.72534 25.26666,-2.26085 33.33333,-3.41225 8.06667,-1.1514 23.06667,-3.91424 33.33333,-6.13965 10.26667,-2.2254 26.2019,-6.35804 35.41162,-9.18364 9.20972,-2.82559 25.09727,-8.48897 35.30567,-12.58528 10.20839,-4.09631 26.37317,-11.51003 35.92172,-16.47493 9.54854,-4.96491 23.40036,-12.80241 30.78182,-17.41667 7.38145,-4.61426 20.51446,-13.69396 29.18445,-20.17711 8.67,-6.48315 23.213,-18.53454 32.31778,-26.78087 9.10477,-8.24634 21.69192,-20.84872 27.97144,-28.0053 6.27952,-7.15658 15.03804,-17.69274 19.4634,-23.4137 4.42535,-5.72095 12.78803,-17.60173 18.58374,-26.40173 5.7957,-8.8 14.9435,-24.7 20.32844,-35.33333 5.38493,-10.63333 11.39691,-23.23333 13.35995,-28 1.96304,-4.76667 5.32428,-13.56847 7.46943,-19.55957 2.14515,-5.99109 5.96225,-18.05676 8.48244,-26.81259 2.52019,-8.75583 6.07273,-23.65402 7.89453,-33.1071 1.82179,-9.45307 4.04432,-24.08741 4.93895,-32.52074 0.89462,-8.43333 1.6194,-28.83333 1.61061,-45.33333 -0.0108,-20.29402 -0.73244,-35.39222 -2.23048,-46.66667 -1.21798,-9.16667 -4.01491,-25.66667 -6.2154,-36.66667 -2.20049,-11 -6.68516,-29 -9.96593,-40 -3.28077,-11 -8.06692,-25.57106 -10.63588,-32.38014 -2.56896,-6.80908 -7.66724,-19.07359 -11.32951,-27.25446 -3.66228,-8.18087 -10.40646,-21.8098 -14.98707,-30.28652 -4.58061,-8.47672 -14.72351,-25.01221 -22.53977,-36.74554 -7.81626,-11.73334 -19.6963,-27.93334 -26.40009,-36 -6.70379,-8.06667 -18.92707,-21.56667 -27.16285,-30 -8.23577,-8.43334 -20.35573,-19.8921 -26.93324,-25.46391 -6.5775,-5.57182 -18.6754,-15.17182 -26.88421,-21.33334 -8.20881,-6.16151 -21.06824,-15.03441 -28.5765,-19.71756 -7.50826,-4.68315 -19.95812,-12.02201 -27.66636,-16.30858 -7.70824,-4.28657 -22.74882,-11.629838 -33.42351,-16.31837 -10.67468,-4.688533 -28.70852,-11.590796 -40.07519,-15.338362 -11.36666,-3.747566 -26.96666,-8.285553 -34.66666,-10.084416 -7.7,-1.798863 -21.2,-4.488887 -30,-5.977831 -8.8,-1.488944 -23.19956,-3.402832 -31.99903,-4.253085 -10.08414,-0.974387 -29.0622,-1.283909 -51.33333,-0.837221 -21.8112,0.437464 -40.94752,1.532035 -50.00098,2.859987 -8.06666,1.18321 -22.59874,3.655364 -32.29351,5.493675 -9.69477,1.838312 -22.89477,4.852247 -29.33333,6.697634 -6.43857,1.845387 -19.50649,6.064002 -29.03982,9.374699 -9.53334,3.310697 -29.33334,11.960325 -44,19.221394 -14.66667,7.261076 -33.16251,17.301616 -41.10186,22.312326 -7.93936,5.01071 -19.1441,12.58945 -24.89942,16.84163 -5.75532,4.25219 -15.45948,11.92296 -21.5648,17.04616 -6.10533,5.1232 -18.227,16.32071 -26.93705,24.88337 -8.71005,8.56265 -20.16114,20.66846 -25.44687,26.9018 -5.28573,6.23333 -13.82714,17.03333 -18.98091,24 -5.15377,6.96666 -13.39654,18.96666 -18.31726,26.66666 -4.92073,7.7 -14.5629,25.4 -21.42707,39.33334 -6.86416,13.93333 -15.16409,32.83333 -18.44429,42 -3.2802,9.16666 -7.77422,22.96666 -9.98672,30.66666 -2.21251,7.7 -5.311,20 -6.88554,27.33334 -1.57455,7.33333 -4.05445,21.13333 -5.51095,30.66666 -1.6517,10.81154 -2.9324,27.86854 -3.4036,45.33334 -0.4304,15.95068 -0.1291,35.74599 0.7001,46 0.8006,9.9 2.708,25.2 4.2386,34 1.5306,8.8 4.53078,22.9 6.66714,31.33333 2.13636,8.43333 5.64663,20.73333 7.80062,27.33333 2.15398,6.6 6.36713,18.14826 9.36255,25.6628 2.99542,7.51453 9.05738,20.86659 13.47101,29.67124 4.41364,8.80465 11.85349,22.4564 16.533,30.33721 4.67952,7.88082 12.58127,20.02875 17.55945,26.99542 4.97818,6.96667 12.49019,16.90385 16.69334,22.08262 4.20315,5.17878 13.61887,15.97878 20.92382,24 7.30495,8.02123 20.02739,20.58405 28.2721,27.91738 8.2447,7.33333 20.77157,17.75604 27.83749,23.16158 7.06591,5.40553 18.84712,13.85758 26.18045,18.78233 7.33333,4.92476 19.11431,12.34643 26.17995,16.4926 7.06564,4.14618 21.46564,11.75422 32,16.90676 10.53436,5.15254 26.65338,12.2903 35.82005,15.8617 9.16667,3.57139 24.3256,8.68329 33.68652,11.35977 9.36091,2.67648 25.26091,6.59837 35.33333,8.71531 10.07242,2.11694 24.61348,4.78734 32.31348,5.93422 7.7,1.14689 16.7,2.28803 20,2.53588 3.3,0.24785 19.2,0.55019 35.33334,0.67187 16.13333,0.12168 37.73333,-0.37222 48,-1.09756 z M 387.99837,713.08149 v -41.39987 l 7.66667,0.39987 c 6.80972,0.35518 7.71462,0.73773 8.0957,3.42252 0.42867,3.02008 0.43208,3.02048 4.01222,0.47119 1.97076,-1.4033 6.20924,-3.25857 9.41886,-4.12283 3.36911,-0.90721 8.54246,-1.19911 12.23971,-0.69061 3.52221,0.48443 8.99066,2.5231 12.1521,4.53039 3.75069,2.38141 7.07108,6.08505 9.55542,10.65831 2.88605,5.31276 3.81848,8.83834 3.85339,14.56981 0.0253,4.1586 -0.87967,9.74483 -2.01111,12.41385 -1.13145,2.66901 -4.25362,7.28396 -6.93817,10.25543 -2.68455,2.97147 -7.52215,6.41134 -10.75024,7.64416 -3.97544,1.51824 -8.38598,2.05944 -13.66909,1.6773 -5.16079,-0.3733 -9.17466,-1.54315 -11.86316,-3.45753 -2.23482,-1.59133 -4.44558,-2.51105 -4.9128,-2.04383 -0.46723,0.46722 -0.8495,6.74949 -0.8495,13.96061 v 13.11111 h -8 -8 z m 40.64136,3.68305 c 2.91942,-1.65346 6.06057,-4.49359 6.98035,-6.3114 0.91977,-1.81781 1.68116,-5.5849 1.69197,-8.37132 0.0108,-2.78642 -0.8905,-6.82626 -2.00292,-8.97743 -1.11241,-2.15117 -3.78261,-4.82137 -5.93378,-5.93379 -2.15117,-1.11241 -6.2712,-2.02257 -9.15562,-2.02257 -4.45639,0 -5.994,0.82973 -10.23327,5.52209 -4.78494,5.29636 -4.95815,5.81975 -4.23728,12.80425 0.43677,4.23196 1.76333,8.4178 3.16705,9.99342 1.32851,1.49119 4.21547,3.50579 6.41547,4.47689 2.2,0.9711 4.9,1.77926 6,1.7959 1.1,0.0166 4.38862,-1.32258 7.30803,-2.97604 z M 269.66504,732.2955 c -1.26286,-0.53269 -1.66667,-7.94463 -1.66667,-30.59191 V 671.8147 h 6.55762 c 3.60669,0 7.50669,0.36419 8.66666,0.80932 1.15998,0.44512 2.10905,2.33812 2.10905,4.20665 0,3.16426 0.16172,3.25098 2.35731,1.26399 1.29652,-1.17333 5.04652,-3.35315 8.33334,-4.84403 3.28681,-1.49088 7.27328,-2.72388 8.85882,-2.73998 2.32263,-0.0236 3.05462,0.98768 3.767,5.20423 0.49312,2.91876 0.27152,6.37832 -0.50103,7.82185 -0.8294,1.54974 -3.41095,2.92073 -6.43367,3.41673 -2.77664,0.45563 -6.95653,2.00149 -9.28864,3.43526 -3.38256,2.07957 -4.40407,3.76843 -5.05037,8.34975 -0.44559,3.15859 -1.2375,12.0429 -1.75979,19.7429 l -0.94963,14 -6.66667,0.25857 c -3.66667,0.14222 -7.41667,-0.0578 -8.33333,-0.44444 z m 64.40568,-0.11683 c -1.42688,-0.36301 -4.87081,-2.09711 -7.65319,-3.85355 -2.78237,-1.75643 -6.57431,-5.48351 -8.42652,-8.2824 -1.85222,-2.79888 -4.03644,-8.34518 -4.85382,-12.32511 -1.10763,-5.39315 -1.09308,-8.66528 0.0571,-12.84684 0.84881,-3.08583 3.4825,-8.15307 5.85264,-11.26053 2.37014,-3.10747 7.19063,-7.1327 10.7122,-8.94496 5.08852,-2.61864 8.37038,-3.28888 15.9877,-3.26511 5.95453,0.0186 11.60486,0.88492 14.91817,2.28733 2.93333,1.24157 7.60936,4.47529 10.39117,7.18604 3.40717,3.32014 5.73477,7.25723 7.13207,12.06375 1.3804,4.74844 1.77212,9.21049 1.17105,13.33959 -0.49675,3.41247 -2.31824,8.6466 -4.04777,11.6314 -1.72952,2.9848 -5.43252,6.98508 -8.22889,8.88951 -2.79636,1.90443 -7.4843,4.10897 -10.41763,4.89899 -2.93334,0.79001 -8.63334,1.37013 -12.66667,1.28915 -4.03333,-0.081 -8.50078,-0.44424 -9.92765,-0.80726 z m 18.60795,-14.28374 c 2.52705,-1.05587 5.80554,-3.90587 7.28552,-6.33333 1.47998,-2.42746 2.69312,-6.08284 2.69586,-8.12306 0.003,-2.04022 -0.85891,-5.77708 -1.91478,-8.30414 -1.05587,-2.52705 -3.90587,-5.80554 -6.33333,-7.28552 -2.42746,-1.47998 -6.09337,-2.69312 -8.14645,-2.69586 -2.05308,-0.003 -5.52962,0.92414 -7.72563,2.05974 -2.19601,1.13561 -5.16397,3.98561 -6.59547,6.33334 -1.43149,2.34773 -2.60272,6.3686 -2.60272,8.93527 0,2.56666 1.20958,6.6506 2.68794,9.0754 1.47837,2.42481 4.62613,5.25133 6.99502,6.28115 2.36889,1.02982 5.37634,1.89589 6.68323,1.92459 1.30689,0.0287 4.44375,-0.8117 6.97081,-1.86758 z m 128.31426,13.80554 c -2.75299,-0.64883 -7.96052,-2.67715 -11.5723,-4.50738 -3.61178,-1.83022 -6.96615,-3.97372 -7.45415,-4.76333 -0.48801,-0.7896 0.67804,-3.80101 2.59122,-6.69202 1.91318,-2.891 4.16019,-5.25637 4.99336,-5.25637 0.83317,0 4.87466,1.65 8.98108,3.66666 6.25637,3.07251 9.1647,3.66051 17.9477,3.62866 9.7836,-0.0355 10.69355,-0.28456 13.66667,-3.74102 1.75186,-2.03665 3.18519,-4.26955 3.18519,-4.96199 0,-0.69244 -1.17519,-2.43418 -2.61154,-3.87053 -1.43635,-1.43635 -6.98635,-3.88576 -12.33334,-5.44313 -5.34698,-1.55737 -12.87028,-4.05125 -16.71843,-5.54195 -3.91742,-1.51753 -8.75005,-4.70738 -10.98074,-7.24799 -2.19124,-2.49569 -4.36676,-6.06232 -4.83447,-7.92585 -0.46772,-1.86353 -0.55052,-6.04869 -0.18401,-9.30037 0.39341,-3.4903 2.08448,-7.77137 4.12821,-10.45083 1.904,-2.49627 6.06757,-5.8001 9.25237,-7.34184 4.40592,-2.13287 8.3202,-2.79937 16.36959,-2.78733 5.81846,0.009 13.57903,0.81524 17.2457,1.7923 3.66666,0.97706 8.76666,2.84625 11.33333,4.15374 2.56667,1.3075 4.85852,2.54282 5.09302,2.74516 0.23449,0.20234 -0.84262,2.85527 -2.39358,5.8954 -1.55096,3.04012 -3.59904,5.82647 -4.55129,6.19189 -0.95225,0.36541 -4.83785,-0.56007 -8.63465,-2.05664 -3.79681,-1.49656 -10.04059,-3.0596 -13.87506,-3.47343 -5.24018,-0.56553 -8.13085,-0.15365 -11.63844,1.65834 -2.64607,1.36693 -4.83641,3.59723 -5.05869,5.15098 -0.21562,1.50713 0.76566,3.78793 2.18062,5.06845 1.41496,1.28052 9.09137,4.13244 17.05869,6.3376 7.96733,2.20516 16.78328,5.51413 19.59101,7.35326 2.80773,1.83914 5.95773,5.38484 7,7.87934 1.04227,2.49451 1.89504,7.28453 1.89504,10.64451 0,3.35997 -0.89937,7.84822 -1.9986,9.9739 -1.09923,2.12567 -4.11348,5.47796 -6.69833,7.44952 -2.58486,1.97156 -8.13549,4.39321 -12.33474,5.38143 -4.19925,0.98822 -11.235,1.74587 -15.635,1.68366 -4.4,-0.0622 -10.25245,-0.64397 -13.00544,-1.2928 z m 59.89433,0.55867 c -0.48889,-0.48888 -0.88889,-14.28888 -0.88889,-30.66666 V 671.8147 l 6.33333,0.0204 c 3.48334,0.0112 7.16938,0.54981 8.1912,1.19685 1.11103,0.70353 1.55492,2.33492 1.10423,4.05834 -0.74574,2.85171 -0.70935,2.84848 3.47547,-0.30855 2.32601,-1.75475 6.26864,-3.89018 8.7614,-4.74542 2.49276,-0.85523 6.18184,-1.55497 8.19794,-1.55497 2.0161,0 6.94205,1.72349 10.94656,3.82998 l 7.28091,3.82998 7.16147,-3.29133 c 3.93881,-1.81024 10.17332,-3.58496 13.85448,-3.94384 5.33578,-0.52018 7.88877,-0.0103 12.58974,2.51425 3.74516,2.01128 6.83868,4.98183 8.47828,8.14126 1.71058,3.29621 2.96288,9.57615 3.71182,18.61378 0.62164,7.50159 1.15642,17.63596 1.18838,22.52082 l 0.0581,8.88157 -8.07117,0.45177 c -4.43915,0.24846 -8.63915,-0.11824 -9.33334,-0.81491 -0.69418,-0.69667 -1.26215,-9.57394 -1.26215,-19.72727 0,-17.82237 -0.11315,-18.57376 -3.27273,-21.73334 -2.20428,-2.20428 -4.76782,-3.27272 -7.85229,-3.27272 -2.51876,0 -5.92153,1.08666 -7.56171,2.4148 -2.72203,2.20416 -3.09569,4.15227 -4.28372,22.33333 -0.71586,10.95519 -1.42467,20.05284 -1.57512,20.21698 -0.15046,0.16415 -3.83925,0.46415 -8.19733,0.66667 l -7.92375,0.36824 -0.69316,-20 c -0.38124,-11 -1.17435,-20.99507 -1.76247,-22.21126 -0.58813,-1.21619 -2.81456,-2.93416 -4.94763,-3.81771 -2.13307,-0.88354 -5.37335,-1.23122 -7.20062,-0.7726 -1.82727,0.45862 -4.47223,2.06814 -5.87769,3.57672 -1.40545,1.50858 -2.92206,4.57631 -3.37023,6.81719 -0.44818,2.24088 -0.82008,8.34932 -0.82646,13.57432 -0.006,5.225 -0.38994,12.65 -0.85238,16.5 l -0.8408,7 h -6.92539 c -3.80897,0 -7.32539,-0.4 -7.81428,-0.88889 z m 118.34329,-1.55327 c -3.61699,-1.69911 -6.181,-4.12607 -7.66666,-7.25687 -1.2277,-2.58719 -2.23219,-6.92072 -2.23219,-9.63008 0,-2.70936 0.99596,-6.61213 2.21324,-8.67282 1.21728,-2.0607 4.66668,-5.12563 7.66533,-6.81096 4.1965,-2.35857 8.13918,-3.19272 17.1201,-3.6221 10.26749,-0.4909 11.668,-0.85425 11.668,-3.02719 0,-1.38592 -1.72594,-3.36186 -3.93379,-4.50358 -2.16358,-1.11883 -6.58814,-2.03424 -9.83236,-2.03424 -3.24422,0 -8.44945,0.9 -11.56718,2 -3.11774,1.1 -5.87776,2 -6.1334,2 -0.25563,0 -1.3802,-1.7702 -2.49903,-3.93378 -1.11883,-2.16359 -2.03424,-4.75246 -2.03424,-5.75305 0,-1.0006 2.13624,-2.83797 4.74719,-4.08304 2.61095,-1.24508 8.46295,-2.79 13.00444,-3.43315 4.58815,-0.64976 11.42297,-0.66894 15.38165,-0.0432 4.31581,0.68224 8.96908,2.53322 11.8037,4.6953 2.57361,1.96299 5.59585,5.73998 6.71608,8.39331 1.42482,3.37476 2.24136,11.39067 2.71767,26.67904 l 0.68088,21.8548 -7.13907,-0.68597 c -5.26791,-0.50618 -7.62315,-1.41504 -8.986,-3.4676 l -1.84692,-2.78162 -3.72565,2.75449 c -2.5396,1.87761 -6.42549,2.93924 -12.20648,3.33482 -6.47914,0.44336 -9.7635,-0.0222 -13.91531,-1.97255 z m 25.10484,-12.20342 c 1.84982,-1.45506 3.77391,-4.28154 4.27576,-6.28106 0.6719,-2.67709 0.29273,-4.08863 -1.43834,-5.35442 -1.29293,-0.94542 -4.6659,-1.71894 -7.49549,-1.71894 -2.82959,0 -6.90622,0.91092 -9.05918,2.02425 -2.22496,1.15057 -4.2973,3.54957 -4.80146,5.5583 -0.68433,2.72658 -0.19804,4.09191 2.1284,5.97574 1.72608,1.3977 5.15573,2.44171 8.02119,2.44171 2.97358,0 6.37123,-1.07403 8.36912,-2.64558 z m 32.99631,-16.08762 v -30.73321 l 7.65884,0.39987 c 7.26017,0.37906 7.69394,0.59839 8.33333,4.21368 l 0.6745,3.81381 2.49662,-2.76589 c 1.37314,-1.52124 5.04558,-3.73934 8.16098,-4.92913 3.11539,-1.18978 7.09192,-1.96134 8.83671,-1.71458 2.93859,0.41559 3.17236,1.03817 3.17236,8.44865 v 8 l -7.00741,0.70438 c -5.17507,0.5202 -7.91665,1.61362 -10.48462,4.18159 -2.00492,2.00492 -3.95311,5.94078 -4.60119,9.29562 -0.61819,3.20013 -1.15011,11.66841 -1.18205,18.81841 l -0.0581,13 h -8 -8 z m 64.54148,28.19563 c -4.14955,-1.88453 -5.97317,-3.76524 -7.60464,-7.84268 -1.24408,-3.10925 -2.53288,-11.83284 -3.0663,-20.75496 -0.91599,-15.32136 -0.93596,-15.39311 -4.39535,-15.7947 -3.136,-0.36404 -3.51502,-1.0258 -3.88334,-6.78003 -0.3863,-6.03505 -0.19342,-6.45147 3.60071,-7.77411 3.6738,-1.28069 4.04224,-1.97359 4.40816,-8.29006 l 0.39928,-6.89255 9,-0.39426 9,-0.39425 v 8.06092 8.06092 h 9.82444 9.82445 l 0.7566,5.6409 c 0.48972,3.65112 0.1989,5.99552 -0.82444,6.64624 -0.86958,0.55295 -5.63105,1.01455 -10.58105,1.02578 l -9,0.0204 v 14 c 0,12.32226 0.32657,14.32657 2.72508,16.72508 2.07749,2.07749 4.17575,2.64999 8.82954,2.40909 4.74218,-0.24548 6.52705,0.26193 7.99811,2.27371 1.0415,1.42434 1.7182,4.09025 1.50379,5.92425 -0.28827,2.46568 -1.60582,3.74921 -5.05652,4.92595 -2.56666,0.87528 -7.66666,1.6121 -11.33333,1.63738 -3.74687,0.0258 -9.05733,-1.03975 -12.12519,-2.43303 z m -601.00387,-0.74423 c -0.47902,-1.2483 -0.87094,-19.68419 -0.87094,-40.96866 v -38.69903 l 25.66667,0.54499 c 23.43727,0.49766 26.21513,0.81146 31.98108,3.61269 3.47292,1.68723 8.68541,5.4387 11.5833,8.33659 2.8979,2.89789 6.64296,8.08582 8.32236,11.52873 2.39412,4.90811 3.03373,8.41918 2.96204,16.25983 -0.0669,7.32057 -0.90546,11.87261 -3.12951,16.98885 -1.67094,3.84388 -5.44433,9.16278 -8.38532,11.81978 -2.94099,2.65701 -8.71926,6.38037 -12.84061,8.27414 -6.94923,3.1932 -9.197,3.48419 -30.95574,4.00747 -21.1785,0.50932 -23.54717,0.34331 -24.33333,-1.70538 z m 38.58596,-14.17089 c 6.30685,-1.09829 9.64209,-2.56553 13.671,-6.01412 3.09849,-2.6522 6.28586,-7.06695 7.61509,-10.54748 1.62023,-4.24249 2.0359,-7.81139 1.42713,-12.25289 -0.47243,-3.44676 -2.20398,-8.28769 -3.84788,-10.75761 -1.6439,-2.46993 -5.38891,-5.76417 -8.32224,-7.32055 -4.05963,-2.15398 -8.43798,-2.96532 -18.33333,-3.3973 l -13,-0.56751 v 26.15508 26.15507 h 6.22411 c 3.42327,0 9.97802,-0.65371 14.56612,-1.45269 z m 94.5431,-86.66749 c -8.8,-0.5872 -26.8,-2.04673 -40,-3.24341 -13.2,-1.19667 -32.1,-3.33815 -42,-4.75882 -9.9,-1.42068 -26.1,-4.11209 -36,-5.98092 -9.9,-1.86883 -24.93128,-5.13899 -33.40284,-7.26702 -8.47156,-2.12803 -21.67156,-6.04363 -29.33333,-8.70133 -7.66178,-2.65771 -17.3531,-6.64781 -21.53628,-8.86691 -4.18319,-2.21909 -10.04892,-6.12594 -13.03497,-8.68188 -2.98605,-2.55595 -6.31344,-6.35716 -7.39421,-8.44714 -1.08077,-2.08998 -1.9628,-5.77976 -1.96006,-8.19951 0.003,-2.41975 1.20133,-6.36171 2.66352,-8.75991 1.46219,-2.39821 6.28897,-6.70684 10.72618,-9.57475 4.4372,-2.86791 12.08862,-6.74063 17.00315,-8.60605 4.91453,-1.86542 15.23551,-4.87567 22.93551,-6.68945 7.7,-1.81378 16.4,-3.70167 19.33333,-4.19531 3.6923,-0.62136 4.92308,-0.46882 4,0.49576 -0.73333,0.7663 -7.48529,3.83505 -15.00436,6.81945 -7.51906,2.98439 -16.99215,7.3005 -21.05131,9.59135 -4.05916,2.29084 -8.78756,6.04487 -10.50755,8.34227 -1.72,2.2974 -3.54033,5.53652 -4.04519,7.19803 -0.50485,1.66151 -0.24386,5.06333 0.57998,7.55959 0.82384,2.49627 4.11968,6.95534 7.32408,9.90905 3.2044,2.95372 9.92377,7.4329 14.93193,9.95375 5.00817,2.52085 14.42022,6.45824 20.91569,8.74976 6.49546,2.29151 17.66972,5.65177 24.83168,7.46723 7.16196,1.81547 19.24749,4.47729 26.85673,5.91518 7.60924,1.43788 20.73499,3.80673 29.16832,5.26412 8.43333,1.45739 21.93333,3.56451 30,4.6825 8.06667,1.11798 22.76667,2.93763 32.66667,4.04367 9.9,1.10604 28.19767,2.97888 40.6615,4.16188 12.46382,1.18299 22.91382,2.40322 23.22222,2.71162 0.3084,0.30839 -7.78928,0.47389 -17.99483,0.36777 -10.20556,-0.10611 -25.75556,-0.67337 -34.55556,-1.26057 z m 318,0.18222 c 2.56667,-0.67044 13.66667,-1.88866 24.66667,-2.70715 11,-0.81849 30.8,-2.68271 44,-4.14271 13.2,-1.46 31.8,-3.84187 41.33333,-5.29304 9.53333,-1.45117 25.13333,-4.17394 34.66667,-6.0506 9.53333,-1.87666 23.33333,-4.90035 30.66666,-6.71931 7.33334,-1.81896 17.06326,-4.44593 21.62206,-5.83772 4.5588,-1.39179 12.9588,-4.45936 18.66667,-6.81683 5.70787,-2.35746 11.87794,-5.20746 13.71127,-6.33333 1.83334,-1.12587 5.13334,-3.50996 7.33334,-5.29798 2.2,-1.78802 5.35,-5.08031 7,-7.31619 1.65,-2.23589 3,-5.90941 3,-8.16337 0,-2.25396 -1.51938,-6.33408 -3.3764,-9.06692 -2.07785,-3.05784 -7.23655,-7.22846 -13.41337,-10.84423 -5.52034,-3.23148 -16.90075,-8.4848 -25.28981,-11.67404 -8.38905,-3.18924 -15.25303,-6.15901 -15.25329,-6.59949 -2.6e-4,-0.44048 2.84953,-0.33504 6.33287,0.23431 3.48333,0.56935 11.73333,2.53166 18.33333,4.36068 6.6,1.82903 15.08273,4.27685 18.85051,5.43962 3.76778,1.16276 10.36778,3.66201 14.66667,5.55388 4.29888,1.89187 10.87195,5.73691 14.60682,8.54455 3.73486,2.80763 7.55351,6.94647 8.48589,9.19742 1.03183,2.49107 1.33982,5.98712 0.78702,8.93377 -0.57932,3.08806 -3.07938,7.1623 -6.90392,11.25104 -3.62211,3.87233 -10.16041,8.57662 -16.51574,11.88303 -5.78602,3.01021 -16.74526,7.51235 -24.35387,10.00475 -7.60861,2.49239 -23.38649,6.65606 -35.06194,9.25259 -11.67546,2.59653 -26.44637,5.62218 -32.82426,6.72368 -6.37788,1.10149 -21.07788,3.20205 -32.66666,4.66791 -11.58879,1.46586 -31.57052,3.56213 -44.40385,4.65837 -12.83334,1.09624 -36.83334,2.30437 -53.33334,2.68473 -19.31703,0.44531 -28.3382,0.25749 -25.33333,-0.52742 z m -259.33333,-9.49662 c -11,-0.55794 -25.4,-1.62173 -32,-2.36398 -6.6,-0.74224 -20.4,-2.32029 -30.66667,-3.50677 -10.26667,-1.18649 -26.76667,-3.37352 -36.66667,-4.86008 -9.9,-1.48656 -28.03442,-4.76333 -40.29872,-7.2817 -12.2643,-2.51837 -29.3643,-6.71919 -38,-9.33514 -8.6357,-2.61596 -20.53873,-7.11812 -26.45118,-10.0048 -5.91245,-2.88667 -13.20508,-7.60765 -16.20584,-10.49105 -3.00076,-2.8834 -6.14285,-7.32394 -6.98243,-9.86788 -1.22044,-3.69797 -1.1329,-5.56734 0.4366,-9.32367 1.0797,-2.58409 4.55925,-6.61372 7.73233,-8.95474 3.17308,-2.34102 9.44494,-5.95051 13.93745,-8.02108 4.49251,-2.07056 14.1083,-5.52933 21.36841,-7.68615 7.26011,-2.15681 22.78441,-5.43396 34.49846,-7.28255 11.71404,-1.84859 23.84826,-3.65454 26.96492,-4.01324 3.11667,-0.35869 5.66667,-0.24331 5.66667,0.2564 0,0.49971 -6.75,2.33304 -15,4.07406 -8.25,1.74102 -21.6,5.38568 -29.66667,8.09925 -8.06666,2.71356 -17.93735,6.5944 -21.93485,8.62409 -3.9975,2.02968 -9.00598,4.96907 -11.12995,6.53197 -2.12398,1.56291 -4.7033,4.46185 -5.73182,6.4421 -1.02852,1.98025 -1.87004,5.12852 -1.87004,6.99616 0,2.01506 1.91828,5.51901 4.71805,8.61802 2.86377,3.16985 9.02106,7.3134 15.66666,10.54288 6.02174,2.9263 17.82057,7.48523 26.21961,10.13094 8.39905,2.64571 24.89905,6.87296 36.66667,9.39389 11.76762,2.52093 29.79567,6.08541 40.06234,7.92107 10.26667,1.83565 29.16667,4.8602 42,6.72121 12.83333,1.86101 33.09216,4.2893 45.01961,5.39618 11.92745,1.10689 22.87745,2.01253 24.33333,2.01253 1.45588,0 2.64706,0.6 2.64706,1.33333 0,0.75866 -3.3044,1.24279 -7.66667,1.12326 -4.21666,-0.11554 -16.66666,-0.66657 -27.66666,-1.22451 z m 206.35815,0.63199 c 0.3591,-0.35911 11.37542,-1.79077 24.48071,-3.18149 13.10529,-1.39071 33.7278,-3.78996 45.8278,-5.33168 12.1,-1.54171 31.3,-4.28929 42.66667,-6.10573 11.36667,-1.81645 30.94408,-5.39132 43.50536,-7.94416 12.56127,-2.55284 28.97126,-6.46338 36.46664,-8.69008 7.49537,-2.22671 18.38078,-6.43823 24.18979,-9.35895 5.80901,-2.92071 12.87891,-7.40372 15.71089,-9.96225 2.83198,-2.55852 5.88576,-6.43041 6.78617,-8.6042 1.39965,-3.37905 1.2631,-4.67305 -0.94145,-8.92111 -1.41821,-2.73282 -5.34506,-6.87525 -8.72634,-9.20541 -3.38128,-2.33015 -10.58194,-6.08259 -16.00146,-8.33874 -5.41953,-2.25616 -19.10927,-6.18524 -30.42165,-8.7313 -11.31237,-2.54606 -25.21795,-5.38965 -30.90128,-6.31909 -5.68334,-0.92944 -10.33334,-2.17813 -10.33334,-2.77487 0,-0.59673 3.45,-0.73605 7.66667,-0.30959 4.21667,0.42647 18.76667,2.5729 32.33333,4.76986 13.56667,2.19695 30.96667,5.50327 38.66667,7.34737 8.48752,2.0327 18.04387,5.45471 24.2702,8.69086 5.86492,3.0483 12.58495,7.84916 15.66666,11.19243 4.01923,4.36034 5.3952,6.968 5.39149,10.2176 -0.003,2.39972 -1.15744,6.25313 -2.56599,8.56314 -1.40856,2.31 -5.15631,5.97929 -8.32835,8.15397 -3.17204,2.17467 -8.90533,5.53869 -12.74065,7.47558 -3.83532,1.9369 -10.09437,4.75184 -13.90901,6.25543 -3.81464,1.50359 -12.07665,4.23651 -18.36003,6.07315 -6.28337,1.83664 -19.96543,5.08165 -30.40457,7.21113 -10.43914,2.12949 -31.43914,5.67235 -46.66667,7.87303 -15.22753,2.20068 -34.88641,4.62366 -43.68641,5.3844 -8.8,0.76074 -25,1.95161 -36,2.64637 -11,0.69476 -27.71633,1.55887 -37.14739,1.92023 -9.43106,0.36136 -16.85357,0.3632 -16.49446,0.004 z m -129.02482,-9.42471 c -4.4,-0.21436 -18.8,-1.01549 -32,-1.7803 -13.2,-0.76481 -34.8,-2.57808 -48,-4.02949 -13.2,-1.45142 -31.8,-3.89245 -41.33333,-5.42452 -9.53334,-1.53207 -25.13334,-4.517 -34.66667,-6.63317 -9.53333,-2.11617 -19.73333,-4.5093 -22.66667,-5.31808 -2.93333,-0.80877 -8.03333,-2.36418 -11.33333,-3.45646 -3.3,-1.09229 -9.62694,-3.71545 -14.05987,-5.82926 -4.43293,-2.1138 -10.88096,-5.99734 -14.32894,-8.63007 -3.44799,-2.63274 -7.17105,-6.53102 -8.27347,-8.66286 -1.10241,-2.13183 -2.00439,-5.5219 -2.00439,-7.53348 0,-2.6701 1.92204,-5.51905 7.12003,-10.5537 5.43128,-5.26062 9.72071,-7.89922 18.08498,-11.12483 6.03073,-2.32569 14.37672,-5.08962 18.54664,-6.14207 4.16993,-1.05244 12.68169,-2.78956 18.91502,-3.86027 6.23333,-1.0707 17.93333,-2.58915 26,-3.37432 8.06667,-0.78518 17.51667,-1.69757 21,-2.02755 3.48333,-0.32998 6.33333,-0.0974 6.33333,0.51692 0,0.61429 -3.45,1.53932 -7.66666,2.05562 -4.21667,0.51631 -13.36667,2.0943 -20.33334,3.50666 -6.96666,1.41235 -18.65113,4.41829 -25.96547,6.67987 -7.31435,2.26157 -16.70339,5.83058 -20.86454,7.93112 -4.16115,2.10054 -8.82668,5.42221 -10.36785,7.3815 -1.57326,2.00007 -2.80214,5.5097 -2.80214,8.00279 0,3.02941 1.26703,5.88353 3.98722,8.98165 2.19296,2.49765 8.17889,6.74385 13.30205,9.43599 5.12316,2.69215 16.38888,7.21772 25.03493,10.05683 8.64606,2.83911 22.91013,6.67676 31.69795,8.5281 8.78782,1.85135 21.67785,4.27833 28.64452,5.39329 6.96667,1.11496 24.66667,3.3684 39.33333,5.00763 24.40508,2.72767 32.94259,2.98108 100.66667,2.98804 67.94399,0.007 76.07323,-0.23437 99.33333,-2.9491 13.93334,-1.62619 34.63334,-4.48944 46,-6.36279 11.36667,-1.87334 26.66667,-4.81784 34,-6.54332 7.33334,-1.72548 20.07909,-5.51678 28.32391,-8.4251 8.24481,-2.90833 18.00159,-7.22004 21.68172,-9.58158 3.68014,-2.36154 7.88439,-5.96943 9.34277,-8.01754 1.45838,-2.04811 2.6516,-5.81906 2.6516,-8.37988 0,-3.70079 -1.01335,-5.54579 -4.93916,-8.99269 -2.71653,-2.38515 -8.0387,-5.75566 -11.82704,-7.49002 -3.78833,-1.73436 -11.84825,-4.63808 -17.91093,-6.45272 -6.06267,-1.81464 -18.5905,-4.7929 -27.83962,-6.61836 -9.24912,-1.82545 -19.51658,-3.90993 -22.81658,-4.63217 -4.79416,-1.04926 -3.32036,-1.16837 7.33333,-0.59268 7.33334,0.39626 21.71051,1.9088 31.94927,3.36119 10.23877,1.4524 22.53877,3.47002 27.33333,4.48362 4.79457,1.01359 13.18195,3.35775 18.63861,5.20923 5.45666,1.85149 12.96133,5.46015 16.67705,8.01926 3.71571,2.55911 7.80117,6.42253 9.07879,8.58537 1.27762,2.16285 2.32295,5.51967 2.32295,7.45961 0,1.93993 -0.88194,5.23263 -1.95986,7.31711 -1.07793,2.08448 -4.22793,5.578 -7,7.76338 -2.77208,2.18537 -9.24014,6.07917 -14.37347,8.65289 -5.13333,2.57371 -14.37318,6.26899 -20.53299,8.21174 -6.15981,1.94274 -16.35981,4.67689 -22.66667,6.07587 -6.30685,1.39898 -18.79422,3.76869 -27.7497,5.26601 -8.95549,1.49733 -26.35549,3.8993 -38.66667,5.33772 -12.31118,1.43841 -30.18397,3.25255 -39.7173,4.03141 -9.53334,0.77886 -32.03334,2.00965 -50,2.73509 -17.96667,0.72544 -43.46667,1.20955 -56.66667,1.0758 -13.2,-0.13375 -27.6,-0.41857 -32,-0.63293 z m -8,-18.59044 c -3.66667,-0.28229 -17.08046,-1.4489 -29.80842,-2.59246 -12.72797,-1.14357 -30.38662,-3.26117 -39.24144,-4.70579 -8.85483,-1.44462 -22.00795,-4.12425 -29.22915,-5.95473 -7.2212,-1.83048 -16.56255,-4.60292 -20.75855,-6.16098 -4.19601,-1.55806 -10.74094,-4.81145 -14.5443,-7.22975 -3.80335,-2.41831 -7.55335,-5.58934 -8.33333,-7.04674 -0.77998,-1.45741 -1.41814,-4.21792 -1.41814,-6.13448 0,-2.06909 1.45561,-4.83367 3.58322,-6.80548 1.97078,-1.82645 7.22078,-5.05144 11.66667,-7.16663 4.44589,-2.1152 12.88344,-5.05577 18.75011,-6.5346 5.86666,-1.47883 14.56666,-3.03552 19.33333,-3.45931 6.10648,-0.54291 7.87892,-0.38571 6,0.53212 -1.46667,0.71646 -7.46667,3.1627 -13.33333,5.43609 -5.86667,2.27339 -13.00823,5.74752 -15.87015,7.72029 -2.86191,1.97277 -5.83887,4.6052 -6.61546,5.84984 -0.94159,1.50906 -0.98446,3.47865 -0.12868,5.91203 0.92004,2.61614 4.00013,5.11039 10.88119,8.81155 5.9438,3.19703 15.58823,6.68169 25.33216,9.15285 8.65385,2.19471 23.23427,5.13508 32.40094,6.53417 9.16666,1.39909 28.27974,3.46989 42.47349,4.60178 14.19376,1.13188 39.404,2.05797 56.02276,2.05797 16.61876,0 39.80568,-0.613 51.5265,-1.36223 11.72082,-0.74923 28.21058,-2.26662 36.64391,-3.37197 8.43334,-1.10535 21.63334,-3.25786 29.33334,-4.78334 7.7,-1.52548 19.0265,-4.22764 25.17001,-6.00479 6.14351,-1.77716 13.67997,-4.70213 16.7477,-6.49994 3.06773,-1.7978 6.96461,-4.74504 8.65973,-6.54942 2.27365,-2.42019 2.85779,-4.17411 2.2271,-6.687 -0.48197,-1.92031 -3.0252,-4.76893 -5.82974,-6.52976 -2.73614,-1.71788 -8.8748,-4.62808 -13.64147,-6.4671 -4.76667,-1.83903 -11.65701,-4.43708 -15.31186,-5.77344 -3.65486,-1.33637 -5.87245,-2.68735 -4.92797,-3.00218 0.94448,-0.31482 7.80853,0.44613 15.25345,1.69101 7.44492,1.24488 17.4625,3.47261 22.2613,4.95051 4.79879,1.4779 11.28511,4.18306 14.41403,6.01146 3.12892,1.8284 6.57892,4.59498 7.66667,6.14796 1.08774,1.55297 1.97771,4.40916 1.97771,6.3471 0,1.93793 -1.2057,5.05632 -2.67935,6.92975 -1.47364,1.87343 -5.36327,4.90631 -8.64361,6.73973 -3.28035,1.83343 -11.361,5.15723 -17.957,7.38624 -6.596,2.229 -19.65637,5.53737 -29.02305,7.35193 -9.36668,1.81455 -21.83032,3.94523 -27.69699,4.73484 -5.86666,0.78961 -19.66666,2.36382 -30.66666,3.49825 -12.77944,1.31794 -37.32935,2.2206 -68,2.50025 -26.4,0.24072 -51,0.2067 -54.66667,-0.0756 z m 25.51303,-26.02843 c -5.03451,-0.64653 -13.88333,-2.3831 -19.66405,-3.85905 -5.78072,-1.47595 -14.86158,-4.24707 -20.17969,-6.15805 -5.31811,-1.91097 -14.76929,-6.02974 -21.00262,-9.15281 -6.23334,-3.12308 -14.96166,-8.40647 -19.39628,-11.74088 -4.43463,-3.33441 -12.87464,-11.07454 -18.7556,-17.20028 -5.88095,-6.12574 -13.77461,-16.14573 -17.54146,-22.26665 -3.76684,-6.12092 -8.64976,-16.10613 -10.85093,-22.18935 -2.20117,-6.08322 -5.05677,-16.05383 -6.34579,-22.15691 -1.60571,-7.60254 -2.3366,-16.97411 -2.32121,-29.76318 0.0145,-12.05099 0.82072,-22.7037 2.27483,-30.05748 1.2388,-6.26495 3.98973,-16.46495 6.11317,-22.66667 2.12344,-6.20172 5.12023,-14.15895 6.65952,-17.68275 1.53929,-3.52379 5.14796,-10.42379 8.01926,-15.33333 2.87131,-4.90954 13.76635,-21.22644 24.2112,-36.25977 10.44486,-15.03333 23.29378,-33.63333 28.55316,-41.33333 5.25939,-7.7 13.55674,-20.73263 18.43856,-28.96141 4.88182,-8.22877 11.54081,-20.26728 14.79775,-26.75224 3.25695,-6.48496 8.58753,-18.05233 11.84575,-25.70527 3.25822,-7.65293 8.17286,-20.05904 10.92142,-27.56914 3.80625,-10.40007 6.08651,-14.61097 9.56675,-17.66665 3.39918,-2.98452 5.89294,-4.01195 9.73777,-4.01195 4.05999,0 5.86253,0.82491 8.40498,3.84645 1.78012,2.11555 4.9256,7.96554 6.98997,12.99999 2.06437,5.03445 7.91584,18.86576 13.00327,30.73623 5.08743,11.87048 13.19002,28.67048 18.00575,37.33334 4.81572,8.66285 11.9336,20.67887 15.81749,26.70224 3.8839,6.02338 11.69412,17.42338 17.35606,25.33334 5.66193,7.90995 17.00977,23.08173 25.21741,33.71507 8.20765,10.63333 18.3316,24.56969 22.49768,30.96968 4.16608,6.4 10.80616,18.4 14.75573,26.66667 3.94957,8.26667 8.79198,20.43031 10.76092,27.03031 3.1686,10.62133 3.64965,14.83394 4.18701,36.66667 0.57024,23.16841 0.40046,25.47654 -2.79523,38 -1.97076,7.72314 -6.19975,18.94352 -10.05073,26.66667 -3.6566,7.33333 -9.63773,17.27632 -13.29138,22.09552 -3.65365,4.81921 -11.09914,12.9951 -16.54555,18.16865 -5.4464,5.17355 -13.65066,11.95175 -18.23168,15.06266 -4.58103,3.11092 -14.40724,8.55144 -21.83603,12.09005 -7.42878,3.53861 -18.83065,7.96935 -25.33748,9.84609 -6.50683,1.87674 -17.00683,4.00541 -23.33333,4.73037 -6.3265,0.72496 -16.00273,1.24714 -21.50273,1.16039 -5.5,-0.0867 -14.11914,-0.68671 -19.15364,-1.33324 z m 42.48697,-21.72726 c 6.6,-1.03834 14.7,-2.73455 18,-3.76934 l 6,-1.88143 -7.33333,-1.01231 c -4.03334,-0.55677 -13.41037,-2.42651 -20.83785,-4.15498 -7.42748,-1.72847 -21.15808,-6.22877 -30.51245,-10.00065 -9.35436,-3.77189 -20.07733,-7.82828 -23.82882,-9.01421 -4.77693,-1.51009 -12.01501,-2.17183 -24.15422,-2.20827 -9.53333,-0.0286 -19.58333,0.42514 -22.33333,1.00837 -2.75,0.58323 -5,1.80358 -5,2.71188 0,0.9083 3.45,3.89967 7.66667,6.64749 4.21666,2.74783 11.86666,7.08349 17,9.63481 5.13333,2.55133 15.33333,6.15763 22.66666,8.01401 7.33334,1.85637 17.53334,3.87252 22.66667,4.48033 5.13333,0.60781 13.53333,1.1787 18.66667,1.26866 5.13333,0.0899 14.73333,-0.68601 21.33333,-1.72436 z m 58,-26.68603 c 3.3,-1.1869 8.85,-4.2449 12.33333,-6.79556 3.48334,-2.55065 6.33334,-5.18984 6.33334,-5.86486 0,-0.73422 -1.74097,-0.70818 -4.33334,0.0648 -2.38333,0.71069 -11.53333,1.64322 -20.33333,2.07231 -11.90484,0.58049 -18.91545,0.22818 -27.39081,-1.37649 -6.26495,-1.18617 -16.46495,-3.91095 -22.66667,-6.05507 -6.20172,-2.14412 -19.07585,-7.43516 -28.60919,-11.75787 -9.53333,-4.32271 -20.33333,-8.72234 -24,-9.77697 -4.48029,-1.28864 -12.7885,-1.88324 -25.33333,-1.81305 -17.43721,0.0976 -19.41312,0.37774 -30,4.2539 -6.23333,2.2822 -14.77186,5.72393 -18.97451,7.64829 -4.20264,1.92436 -7.96561,4.0238 -8.36215,4.66542 -0.39654,0.64162 0.83345,2.60793 2.73332,4.36959 l 3.45431,3.20302 12.90785,-3.98545 c 11.70809,-3.61501 14.70485,-3.99482 32.24118,-4.08628 15.06869,-0.0786 21.08522,0.43179 27.27535,2.31375 4.36811,1.32801 16.66811,5.88079 27.33333,10.11728 10.66523,4.23649 22.45911,8.70462 26.20862,9.92918 3.74952,1.22456 10.64952,3.09709 15.33334,4.16119 5.69893,1.29471 13.36774,1.75875 23.18269,1.40279 8.85595,-0.32119 17.04378,-1.38689 20.66667,-2.68992 z m 16.27412,-32.22714 c 5.20696,-1.1843 11.45283,-2.98292 13.87972,-3.99694 2.4269,-1.01402 5.9351,-4.08433 7.79601,-6.82291 1.86092,-2.73858 3.38348,-5.73996 3.38348,-6.66973 0,-0.92976 -0.36339,-1.69048 -0.80754,-1.69048 -0.44414,0 -4.19414,0.86596 -8.33333,1.92436 -4.13919,1.0584 -14.72579,2.56927 -23.52579,3.35748 -11.04064,0.98891 -19.27599,1.01323 -26.56908,0.0785 -5.81299,-0.74506 -14.21299,-2.36428 -18.66667,-3.59829 -4.45367,-1.234 -14.39759,-4.77562 -22.09759,-7.87027 -7.7,-3.09465 -19.61886,-8.11182 -26.48637,-11.14926 -6.8675,-3.03744 -17.3675,-6.69289 -23.33333,-8.12322 -5.96583,-1.43033 -15.11837,-2.6048 -20.33898,-2.60994 -5.2206,-0.005 -14.67301,0.89415 -21.00535,1.99841 -6.33233,1.10427 -15.56093,3.61659 -20.50798,5.58293 -4.94706,1.96634 -13.49465,6.21515 -18.99465,9.44179 -5.5,3.22664 -11.05,6.80731 -12.33334,7.95705 -1.28333,1.14975 -2.32414,3.34745 -2.31291,4.88379 0.0112,1.53635 0.53542,3.60611 1.16488,4.59949 0.91946,1.45104 3.47128,0.83434 12.97958,-3.13677 6.50932,-2.71859 17.23512,-6.7585 23.83512,-8.97757 10.05394,-3.38038 14.70286,-4.13558 28.66667,-4.65682 12.07528,-0.45075 19.36187,-0.0493 26.45025,1.45743 5.38098,1.14375 20.98098,6.86124 34.66667,12.70552 13.68569,5.84428 29.68308,11.83475 35.54974,13.31216 5.86667,1.47741 12.16667,2.93532 14,3.23981 1.83334,0.30449 10.11489,0.63533 18.40346,0.73519 9.70088,0.11689 18.44314,-0.5856 24.53733,-1.97169 z m 9.77068,-35.85534 c 5.10869,-1.15724 12.12214,-3.02149 15.58544,-4.14278 5.48801,-1.77683 6.47191,-2.66881 7.65923,-6.94367 0.74928,-2.69772 1.36567,-6.31913 1.36976,-8.04759 0.006,-2.49141 -0.47609,-2.93257 -2.3259,-2.12885 -1.28333,0.5576 -5.36836,2.09017 -9.07783,3.40572 -3.70948,1.31556 -10.60948,3.01901 -15.33334,3.78544 -4.72385,0.76644 -15.24285,1.39806 -23.37554,1.4036 -10.5036,0.007 -17.84165,-0.771 -25.33334,-2.68643 -5.80064,-1.48308 -13.64624,-3.85581 -17.43467,-5.27274 -3.78843,-1.41693 -14.96438,-6.154 -24.83544,-10.52683 -9.87106,-4.37283 -22.97143,-9.57628 -29.11194,-11.56322 -8.23118,-2.66344 -14.94564,-3.78892 -25.55549,-4.28364 -8.51089,-0.39684 -18.58952,0.006 -24.66667,0.98546 -5.65165,0.91105 -15.67574,3.41837 -22.27574,5.57181 -6.6,2.15343 -17.7,6.95551 -24.66666,10.67129 -6.96667,3.71577 -14.31667,7.92745 -16.33334,9.35928 -2.69808,1.91565 -3.66127,3.72405 -3.64625,6.84589 0.0112,2.33339 0.60102,5.14254 1.31065,6.24254 1.11405,1.72691 2.06708,1.55538 6.97958,-1.25618 3.12915,-1.79089 10.18936,-5.54634 15.68936,-8.34544 5.5,-2.7991 15.7,-7.00625 22.66666,-9.34923 12.21734,-4.10884 13.44708,-4.25972 34.66667,-4.25326 19.19749,0.006 23.27387,0.39905 32,3.08676 5.5,1.69404 20.2,7.42839 32.66667,12.743 12.46666,5.31461 25.66666,10.60785 29.33333,11.76276 3.66667,1.1549 9.96667,2.73407 14,3.50925 4.03333,0.77518 8.53333,1.68784 10,2.02814 1.46667,0.34029 8.98683,0.36768 16.71147,0.0609 7.72464,-0.30683 18.22464,-1.50469 23.33333,-2.66193 z m -7.1231,-34.00129 c 4.90694,-0.70973 12.83333,-2.5745 17.6142,-4.14395 4.78087,-1.56945 9.71633,-3.98488 10.9677,-5.36762 2.15519,-2.38147 2.0514,-3.19158 -1.96774,-15.35821 -2.33363,-7.06427 -7.16964,-18.90627 -10.74671,-26.31556 -3.57707,-7.40928 -10.85426,-20.07143 -16.17155,-28.13809 -5.31729,-8.06667 -17.57013,-25.16667 -27.22855,-38 -9.65841,-12.83334 -22.08441,-29.93334 -27.61332,-38 -5.52892,-8.06667 -12.50971,-18.919 -15.51288,-24.1163 -3.00316,-5.1973 -10.52209,-19.5973 -16.70873,-32 -6.18664,-12.4027 -12.35804,-25.70037 -13.71424,-29.55037 -1.35619,-3.85 -2.82072,-7 -3.25451,-7 -0.43379,0 -3.38315,6.15 -6.55412,13.66667 -3.17098,7.51666 -9.05461,20.26666 -13.07474,28.33333 -4.02012,8.06667 -10.91353,20.66667 -15.31867,28 -4.40514,7.33333 -14.71793,23.23333 -22.91731,35.33333 -8.19938,12.1 -20.47377,29.8 -27.27642,39.33334 -6.80265,9.53333 -15.59296,22.73333 -19.53401,29.33333 -3.94105,6.6 -9.32988,16.99828 -11.97517,23.10728 -2.64529,6.10901 -6.18126,16.60901 -7.85771,23.33333 -1.67644,6.72433 -3.42644,14.2351 -3.88889,16.69059 l -0.84081,4.46453 5.65957,-3.48486 c 3.11277,-1.91667 10.15958,-5.80445 15.65958,-8.63951 5.5,-2.83505 14.99703,-6.73098 21.10451,-8.65761 6.10747,-1.92663 16.60747,-4.39547 23.33333,-5.48633 6.72585,-1.09085 16.21254,-1.98578 21.08153,-1.98872 4.86899,-0.003 13.70522,0.91514 19.63607,2.0402 5.93085,1.12506 15.28771,3.51594 20.79302,5.31305 5.50531,1.79712 18.26908,6.94403 28.36393,11.43758 10.09485,4.49355 21.65427,9.34734 25.68761,10.78619 4.03333,1.43884 10.93333,3.42373 15.33333,4.41085 4.4,0.98712 12.5,1.83058 18,1.87435 5.5,0.0438 14.01477,-0.50109 18.9217,-1.21082 z"
     id="path1" />
</svg>
