<?xml version="1.0" encoding="UTF-8" standalone="no"?>
<!-- Created with Inkscape (http://www.inkscape.org/) -->

<svg
   version="1.1"
   id="svg1"
   width="669.33331"
   height="952"
   viewBox="0 0 669.33331 952"
   sodipodi:docname="logo (1).svg"
   inkscape:version="1.4.4 (dcaf3e7, 2026-05-05)"
   xmlns:inkscape="http://www.inkscape.org/namespaces/inkscape"
   xmlns:sodipodi="http://sodipodi.sourceforge.net/DTD/sodipodi-0.dtd"
   xmlns="http://www.w3.org/2000/svg"
   xmlns:svg="http://www.w3.org/2000/svg">
  <defs
     id="defs1" />
  <sodipodi:namedview
     id="namedview1"
     pagecolor="#ffffff"
     bordercolor="#000000"
     borderopacity="0.25"
     inkscape:showpageshadow="2"
     inkscape:pageopacity="0.0"
     inkscape:pagecheckerboard="0"
     inkscape:deskcolor="#d1d1d1"
     inkscape:zoom="0.86764706"
     inkscape:cx="334.81356"
     inkscape:cy="476"
     inkscape:window-width="1920"
     inkscape:window-height="1028"
     inkscape:window-x="-6"
     inkscape:window-y="-6"
     inkscape:window-maximized="1"
     inkscape:current-layer="svg1" />
  <path
     style="display:inline;fill:#000000"
     d="m 303.33332,950.68689 c -5.86666,-0.62688 -16.36666,-2.12733 -23.33333,-3.33432 -6.96666,-1.207 -18.76885,-3.63123 -26.22709,-5.38718 -7.45823,-1.75596 -21.25823,-5.68054 -30.66666,-8.7213 -9.40844,-3.04076 -23.69765,-8.21092 -31.75381,-11.48924 -8.05617,-3.27832 -20.40543,-8.91819 -27.44282,-12.53305 -7.03739,-3.61486 -19.94598,-11.2635 -28.68576,-16.99697 -8.73979,-5.73348 -19.79052,-13.55821 -24.55719,-17.38828 C 105.9,871.00648 96.368056,862.35141 89.484572,855.60306 82.601089,848.85471 72.616876,838.1396 67.297432,831.7917 61.977989,825.44381 53.096835,813.44381 47.561535,805.12504 42.026235,796.80627 33.601382,781.9 28.839639,772 24.077896,762.1 18.299053,748.3 15.997766,741.33333 13.696478,734.36667 10.647064,723.86667 9.2212887,718 7.7955138,712.13333 5.395889,700.13333 3.8887893,691.33333 2.0766212,680.75203 0.89426141,666.30217 0.39758913,648.66667 -0.0586141,632.46811 0.25098648,615.83391 1.1862717,606.29238 c 0.8468357,-8.63919 2.7357754,-22.73919 4.1976438,-31.33334 1.4618683,-8.59414 4.7488155,-23.30269 7.3043275,-32.68566 2.555512,-9.38297 6.814608,-22.88297 9.464657,-30 2.65005,-7.11703 8.308952,-20.56863 12.575337,-29.89246 4.266386,-9.32382 11.468121,-23.39463 16.003857,-31.26846 4.535736,-7.87383 13.685451,-22.44525 20.3327,-32.38092 6.647249,-9.93568 20.794739,-30.36487 31.438866,-45.39821 C 113.14779,358.3 130.62826,333.4 141.34915,318 c 10.72089,-15.4 24.30161,-35.2 30.17938,-44 5.87777,-8.8 16.40515,-25.3 23.39417,-36.66667 6.98902,-11.36666 16.94535,-28.23302 22.12516,-37.48078 5.17981,-9.24776 14.55031,-27.06564 20.82333,-39.59528 6.27302,-12.52965 14.18684,-28.96329 17.58627,-36.51922 3.39943,-7.55593 10.05664,-23.03805 14.7938,-34.404717 4.73716,-11.366666 11.89344,-29.889355 15.90285,-41.16153 4.00941,-11.272175 8.55151,-22.972175 10.09357,-26 1.54206,-3.027825 4.31106,-7.484867 6.15334,-9.904539 1.84228,-2.4196711 5.95547,-5.9265465 9.14043,-7.7930561 3.64658,-2.1370405 8.67295,-3.65499561 13.57439,-4.09944242 5.78604,-0.52465997 9.04027,-0.10944235 12.68046,1.61794392 2.6933,1.2780529 6.61353,4.5025331 8.71162,7.1655116 2.0981,2.662978 5.66754,8.525973 7.9321,13.028877 2.26456,4.502905 9.16878,21.002905 15.34271,36.666667 6.17393,15.663763 15.57623,38.379568 20.894,50.479565 5.31778,12.1 14.43809,31.53706 20.26736,43.19346 5.82928,11.65641 14.76285,28.62359 19.85239,37.70485 5.08953,9.08126 13.54635,23.54421 18.79292,32.13987 5.24657,8.59567 15.52811,24.60294 22.84787,35.57172 7.31976,10.96878 19.32582,28.36878 26.68013,38.66667 7.35432,10.29789 18.77265,25.92343 25.37408,34.72343 6.60143,8.8 17.4674,22.9 24.1466,31.33334 C 555.31729,371.1 566.22939,385.2 572.8872,394 c 6.65781,8.8 17.19833,23.5 23.42337,32.66667 6.22504,9.16666 14.9226,22.66666 19.32792,30 4.40531,7.33333 11.77083,20.83333 16.36781,30 4.59698,9.16666 10.95277,23.11762 14.12398,31.00211 3.17121,7.8845 8.20729,22.26199 11.19129,31.94998 2.984,9.68799 6.27497,22.86692 7.31326,29.28652 1.03829,6.4196 2.59781,20.47019 3.4656,31.22354 0.94416,11.6997 1.28408,30.86045 0.84643,47.71136 -0.60277,23.20817 -1.33499,31.01601 -4.16411,44.40284 -1.88801,8.93366 -5.92262,23.86138 -8.9658,33.17273 -3.04319,9.31134 -10.21073,26.30198 -15.92787,37.75698 -5.71714,11.455 -13.98919,26.22727 -18.38233,32.82727 -4.39314,6.6 -11.35758,16.2 -15.47655,21.33333 -4.11896,5.13334 -11.70108,13.98286 -16.84915,19.66561 -5.14807,5.68275 -16.87548,16.60792 -26.06091,24.27814 -9.18543,7.67023 -22.49514,17.80063 -29.57714,22.51199 -7.08199,4.71137 -18.87635,11.91558 -26.20968,16.00935 -7.33334,4.09378 -20.34353,10.43974 -28.91156,14.10213 -8.56802,3.6624 -21.82601,8.74925 -29.46219,11.3041 -7.63619,2.55486 -20.0167,6.19976 -27.51226,8.09979 -7.49555,1.90002 -19.43757,4.36738 -26.5378,5.48302 -8.12641,1.27688 -25.50688,2.21569 -46.90952,2.53383 -18.7,0.27796 -38.8,-0.008 -44.66667,-0.6344 z m 72.85873,-45.36904 c 7.59437,-0.74185 19.80794,-2.58182 27.14127,-4.08882 7.33333,-1.50701 17.53333,-3.96512 22.66667,-5.46247 5.13333,-1.49735 10.51995,-3.35161 11.97026,-4.12057 2.62701,-1.39285 2.62701,-1.40198 0,-2.42833 -1.45031,-0.56663 -6.64725,-1.0724 -11.54875,-1.12395 -4.9015,-0.0515 -16.60149,-1.62898 -26,-3.50543 -9.3985,-1.87645 -24.28818,-5.21439 -33.08818,-7.41765 -8.8,-2.20326 -24.1,-7.18796 -34,-11.07711 -9.9,-3.88916 -27.3,-10.83273 -38.66666,-15.43016 -11.36667,-4.59744 -26.66667,-10.08448 -34,-12.19343 -7.33333,-2.10895 -20.53333,-4.79425 -29.33333,-5.96733 -11.32262,-1.50936 -20.67739,-1.8918 -32,-1.3082 -8.8,0.45357 -21.77189,1.69399 -28.82642,2.75648 -7.05454,1.0625 -15.30454,2.92335 -18.33334,4.13524 -3.0288,1.21188 -5.50691,2.62602 -5.50691,3.14253 0,0.51651 1.65,2.48958 3.66667,4.3846 2.01667,1.89502 8.97995,6.88633 15.47397,11.0918 6.49401,4.20548 20.29401,12.01477 30.66666,17.354 10.37265,5.33922 24.25937,11.60091 30.85937,13.91487 6.6,2.31396 20.32755,6.2564 30.50567,8.76097 10.17812,2.50457 25.17812,5.44735 33.33333,6.53952 8.15521,1.09217 17.22766,2.20136 20.16099,2.46487 2.93334,0.26351 15.61976,0.57997 28.19206,0.70325 12.5723,0.12327 29.0723,-0.38283 36.66667,-1.12468 z m 107.14127,-53.35042 c 8.06667,-0.75001 17.9353,-2.30076 21.93029,-3.4461 3.995,-1.14534 10.895,-3.89955 15.33333,-6.12047 4.43834,-2.22092 11.66971,-6.4414 16.06971,-9.37885 4.4,-2.93745 10.25,-7.49085 13,-10.11867 2.75,-2.62783 5,-5.47578 5,-6.32877 0,-1.15418 -1.96117,-1.09944 -7.66667,0.21398 -4.21666,0.97069 -14.74739,2.69037 -23.40162,3.82151 -8.70263,1.13746 -25.60924,2.05661 -37.82888,2.05661 -13.19815,0 -27.7997,-0.84437 -36.26504,-2.0971 -7.79412,-1.15341 -18.97112,-3.21438 -24.83779,-4.57994 -5.86666,-1.36557 -15.76666,-4.08835 -22,-6.05064 -6.23333,-1.96229 -17.63085,-5.95527 -25.32783,-8.87328 -7.69697,-2.91802 -24.3021,-10.04478 -36.90028,-15.83726 -12.59818,-5.79248 -29.46482,-13.21817 -37.48142,-16.50155 -8.0166,-3.28338 -20.51148,-7.59795 -27.76638,-9.58794 -12.83776,-3.52133 -14.17197,-3.61929 -49.85741,-3.66043 -35.40684,-0.0408 -37.10188,0.0767 -49.33334,3.42131 -6.96666,1.90497 -22.57826,7.35553 -34.69244,12.11235 -12.11417,4.75683 -26.9188,11.10894 -32.89917,14.11581 -5.98038,3.00688 -11.295663,6.15027 -11.811756,6.98533 -0.548335,0.88722 2.319239,4.71289 6.899176,9.20428 l 7.83753,7.68601 22.45634,-7.06876 c 12.35098,-3.88781 26.75098,-7.84058 32,-8.78394 6.11908,-1.09972 21.98319,-1.73114 44.21032,-1.75965 23.52433,-0.0302 37.88081,0.53579 44.66667,1.76087 5.5,0.99295 15.7,3.61063 22.66666,5.81708 6.96667,2.20644 28.16865,10.2691 47.11551,17.917 18.94686,7.64791 44.14686,17.13904 56,21.0914 11.85314,3.95236 27.7463,8.44483 35.31814,9.98327 7.57184,1.53844 18.07184,3.29875 23.33333,3.91182 5.26149,0.61306 14.06635,1.192 19.56635,1.28653 5.5,0.0945 16.6,-0.44179 24.66667,-1.19181 z m 58.66666,-74.66111 c 7.33334,-1.53105 17.98503,-4.24207 23.67043,-6.02447 5.6854,-1.78241 13.30183,-4.74308 16.92539,-6.57928 4.22419,-2.14056 8.07039,-5.49271 10.71864,-9.34181 2.2717,-3.3018 5.59942,-9.1587 7.39493,-13.01535 1.79551,-3.85664 3.27042,-7.69701 3.27759,-8.53416 0.009,-1.00099 -5.12223,-0.20335 -14.98698,2.32989 -8.25,2.11859 -20.4,4.7254 -27,5.79292 -6.6,1.06752 -20.7,2.6464 -31.33333,3.50862 -10.63333,0.86222 -27.13333,1.21854 -36.66667,0.79184 -9.53333,-0.42671 -23.63333,-1.72197 -31.33333,-2.87836 -7.7,-1.15639 -20.6,-3.90303 -28.66666,-6.10364 -8.06667,-2.20062 -24.26346,-7.66926 -35.99287,-12.15254 -11.72941,-4.48329 -32.72941,-13.23599 -46.66667,-19.45045 -13.93725,-6.21446 -31.94046,-13.85868 -40.00713,-16.98716 -8.06666,-3.12848 -18.86666,-6.90614 -24,-8.3948 -5.13333,-1.48867 -12.63333,-3.39418 -16.66666,-4.23447 -4.03333,-0.84029 -13.46972,-2.02902 -20.96975,-2.64163 -7.50002,-0.61262 -22.44814,-0.59408 -33.21803,0.0412 -10.76989,0.63527 -25.9335,2.43712 -33.69692,4.00411 -7.76341,1.567 -20.4153,4.89355 -28.1153,7.39234 -7.7,2.49878 -21.8,8.37234 -31.33333,13.05233 -9.53333,4.68 -23.03333,12.24168 -30,16.80375 -6.966666,4.56206 -15.216666,10.36436 -18.333332,12.894 -4.317046,3.50392 -5.666667,5.52433 -5.666667,8.48309 0,2.13607 0.965148,6.2959 2.144773,9.24407 1.43266,3.58057 2.971992,5.36032 4.636228,5.36032 1.3703,0 6.255152,-1.43306 10.855227,-3.18457 4.600074,-1.75151 16.463771,-6.78014 26.363771,-11.17473 9.9,-4.39459 25.8,-10.53034 35.33333,-13.635 9.53334,-3.10466 24.83333,-7.06859 34,-8.80873 9.16667,-1.74015 23.86667,-3.55579 32.66667,-4.03475 9.69297,-0.52757 22.20743,-0.23038 31.74734,0.75393 8.66104,0.89363 21.56104,3.04725 28.66666,4.78582 7.10563,1.73857 17.11933,4.60655 22.25266,6.3733 5.13333,1.76674 28.23333,11.33677 51.33333,21.26673 23.1,9.92997 47.7,19.96048 54.66667,22.29002 6.96666,2.32955 19.86666,5.94871 28.66666,8.04258 8.8,2.09387 20.8,4.44475 26.66667,5.22417 5.86667,0.77943 12.46667,1.67468 14.66667,1.98945 2.2,0.31478 15.4,0.33896 29.33333,0.0537 18.91967,-0.38728 28.70894,-1.22333 38.66666,-3.30231 z m -10,-73.39365 c 8.43334,-0.77635 19.83334,-2.30855 25.33334,-3.40489 5.5,-1.09633 17.16113,-3.78825 25.91364,-5.98204 8.7525,-2.19379 19.8525,-5.62656 24.66666,-7.62837 5.86695,-2.43957 9.27039,-4.72627 10.32209,-6.93518 0.86299,-1.81254 2.49818,-9.56033 3.63377,-17.21731 1.13559,-7.65698 1.86577,-14.12072 1.62262,-14.36387 -0.24314,-0.24314 -5.47834,1.95924 -11.63376,4.89419 -6.15543,2.93495 -16.89169,6.82264 -23.85836,8.63932 -6.96666,1.81667 -19.56666,4.36877 -28,5.67133 -11.0517,1.70696 -23.15197,2.36819 -43.33333,2.36798 -23.8991,-2.5e-4 -30.34337,-0.45692 -44,-3.11807 -8.8,-1.71478 -26.5,-6.59357 -39.33333,-10.84176 -12.83333,-4.24819 -30.23333,-10.72293 -38.66667,-14.38832 -8.43333,-3.66538 -26.39051,-11.53419 -39.90485,-17.48623 -13.51433,-5.95204 -32.14773,-13.45759 -41.40755,-16.67899 -9.25981,-3.22141 -24.00263,-7.52609 -32.76181,-9.56596 -14.42799,-3.36005 -18.30834,-3.71111 -41.25911,-3.73281 -18.11335,-0.0171 -29.51333,0.65726 -40,2.36628 -8.06667,1.31463 -18.56667,3.26918 -23.33334,4.34344 -4.76666,1.07426 -15.49656,4.06775 -23.84422,6.6522 -8.34765,2.58445 -21.54765,7.40097 -29.33333,10.70337 -7.78568,3.30241 -20.45578,9.34639 -28.155776,13.43108 -7.7,4.08468 -20.15717,11.28996 -27.682601,16.01175 -7.525431,4.72178 -14.35383,9.83925 -15.174219,11.37216 -0.928293,1.73454 -1.219209,6.59977 -0.770311,12.88257 0.396719,5.5525 1.146173,11.16334 1.665452,12.46853 0.664134,1.66927 1.787048,2.12788 3.786246,1.54636 1.563155,-0.45469 10.0421,-4.91283 18.8421,-9.90697 8.8,-4.99415 21.538277,-11.84015 28.307279,-15.21333 6.76901,-3.37318 18.16901,-8.4612 25.33334,-11.30671 7.16432,-2.84551 19.63424,-7.30312 27.71092,-9.9058 8.07668,-2.60268 18.87668,-5.5244 24,-6.49271 6.44164,-1.21749 21.03716,-1.72982 47.31512,-1.66086 33.96659,0.0891 39.486,0.41472 52,3.06751 7.7,1.63229 20.3,5.10268 28,7.712 7.7,2.60931 26.6,10.16998 42,16.80149 15.4,6.63151 36.27625,15.55443 46.39167,19.82871 10.11542,4.27429 23.91542,9.62618 30.66666,11.89311 6.75125,2.26693 17.37164,5.33606 23.60088,6.8203 6.22923,1.48424 19.12923,3.77777 28.66666,5.09673 9.53744,1.31897 21.84079,2.45959 27.34079,2.53472 5.5,0.0751 16.9,-0.4986 25.33333,-1.27495 z m 27.60934,-79.95451 c 5.64864,-0.85624 16.2917,-3.34563 23.65126,-5.53199 7.35956,-2.18636 17.58665,-5.93434 22.72687,-8.32886 5.14023,-2.39451 10.475,-5.63067 11.85505,-7.19145 1.99939,-2.26124 2.32838,-3.99602 1.61927,-8.5385 -0.48945,-3.13538 -3.54102,-13.54708 -6.78125,-23.13711 -3.24023,-9.59002 -9.03683,-24.89002 -12.88133,-34 -3.8445,-9.10997 -10.45436,-23.3044 -14.68859,-31.54318 -4.23422,-8.23878 -11.39017,-21.13878 -15.9021,-28.66667 -4.51193,-7.52788 -13.60835,-21.76541 -20.21426,-31.63895 -6.60592,-9.87354 -19.72447,-28.47354 -29.15235,-41.33333 -9.42788,-12.8598 -24.71222,-33.28145 -33.96521,-45.38145 -9.25299,-12.1 -23.93187,-31.95072 -32.61974,-44.1127 -8.68786,-12.16198 -22.96718,-33.16198 -31.73183,-46.66667 -8.76464,-13.50468 -21.42206,-34.45397 -28.1276,-46.55397 -6.70554,-12.1 -19.28966,-36.1 -27.9647,-53.33333 -8.67504,-17.23333 -18.75663,-38.23333 -22.40354,-46.66667 -3.64691,-8.43333 -8.27206,-19.67984 -10.27813,-24.992249 -2.00606,-5.312406 -4.18741,-9.992671 -4.84744,-10.40059 -0.66002,-0.407919 -2.69909,2.438595 -4.53125,6.325586 -1.83217,3.886991 -6.35142,14.433623 -10.04278,23.436953 -3.69136,9.00334 -12.13935,27.84187 -18.7733,41.86341 -6.63396,14.02155 -17.0408,34.86928 -23.12632,46.32831 -6.08552,11.45903 -16.37667,29.5155 -22.86922,40.12549 -6.49255,10.60999 -23.0315,36.19995 -36.75323,56.86659 -13.72173,20.66663 -38.38851,56.37162 -54.81506,79.34443 C 140.56598,403.20407 122.92231,428.3 117.78439,436 c -5.13793,7.7 -13.33016,20.73871 -18.20496,28.97491 -4.874802,8.23621 -11.913372,21.05294 -15.641267,28.48164 -3.727894,7.4287 -9.391941,19.88999 -12.586769,27.69175 -3.194829,7.80177 -7.896493,21.08503 -10.448142,29.51837 -2.551649,8.43333 -6.498738,24.51718 -8.771308,35.7419 -2.27257,11.22471 -4.131945,20.97471 -4.131945,21.66666 0,0.69196 0.492774,1.2581 1.095054,1.2581 0.602279,0 6.752279,-3.64988 13.666666,-8.11085 6.914387,-4.46096 18.552668,-11.1322 25.862847,-14.82497 7.310179,-3.69277 19.910174,-9.29815 27.999994,-12.4564 8.08983,-3.15825 21.90877,-7.86728 30.70877,-10.46451 8.8,-2.59723 20.4773,-5.6605 25.94955,-6.80726 5.47226,-1.14676 15.87975,-2.97572 23.12777,-4.06435 7.24801,-1.08864 19.27071,-2.34436 26.71711,-2.79049 7.44639,-0.44613 21.0389,-0.12027 30.20557,0.72413 9.16666,0.84441 23.86666,2.99722 32.66666,4.78403 8.8,1.78681 21.7,4.98457 28.66667,7.10613 6.96666,2.12155 18.66666,6.12377 26,8.8938 7.33333,2.77004 23.23333,9.51823 35.33333,14.99598 12.1,5.47775 29.5,13.26173 38.66666,17.29774 9.16667,4.03601 23.56667,9.61063 32,12.38805 8.43334,2.77741 20.43334,6.0844 26.66667,7.34887 6.23333,1.26447 18.23333,2.67728 26.66666,3.13957 8.43334,0.46229 22.98463,0.4314 32.33622,-0.0686 9.35158,-0.50006 21.62449,-1.60975 27.27312,-2.46599 z"
     id="path1" />
</svg>
